<svg xmlns="http://www.w3.org/2000/svg" viewBox="0 0 200 200" width="200" height="200">
  <!-- Background Circle -->
  <circle cx="100" cy="100" r="100" fill="#e0e0e0"/>
  
  <!-- Head -->
  <circle cx="100" cy="85" r="40" fill="#f5d0a9"/>
  
  <!-- Hair -->
  <path d="M60 75 Q100 30 140 75" fill="#6d4c41" stroke="#6d4c41" stroke-width="2"/>
  <path d="M60 75 Q70 40 100 40 Q130 40 140 75" fill="#6d4c41"/>
  
  <!-- Eyes -->
  <circle cx="85" cy="80" r="5" fill="#333"/>
  <circle cx="115" cy="80" r="5" fill="#333"/>
  
  <!-- Smile -->
  <path d="M85 100 Q100 115 115 100" fill="none" stroke="#333" stroke-width="2"/>
  
  <!-- Body/Suit -->
  <path d="M60 125 Q100 140 140 125 L150 200 L50 200 Z" fill="#2196f3"/>
  <path d="M85 125 L75 200 L125 200 L115 125" fill="#1565c0"/>
  
  <!-- Collar -->
  <path d="M85 125 Q100 135 115 125" fill="none" stroke="#fff" stroke-width="3"/>
</svg>